0
SECTION
2
HEADER
9
$INSUNITS
70
4
0
ENDSEC
0
SECTION
2
TABLES
0
TABLE
2
LTYPE
0
LTYPE
72
65
70
64
2
CONTINUOUS
3
______
73
0
40
0
0
ENDTAB
0
TABLE
2
LAYER
0
ENDTAB
0
ENDSEC
0
SECTION
2
ENTITIES
0
LINE
8
0
10
164.95
20
-2.525
11
177.95
21
-2.525
0
LINE
8
0
10
164.95
20
-16.525
11
177.95
21
-16.525
0
LINE
8
0
10
164.45
20
-3.025
11
164.45
21
-16.025
0
LINE
8
0
10
178.45
20
-3.025
11
178.45
21
-16.025
0
ARC
8
0
10
164.95
20
-3.025
40
0.5
50
90
51
180
0
ARC
8
0
10
177.95
20
-3.025
40
0.5
50
0
51
90
0
ARC
8
0
10
164.95
20
-16.025
40
0.5
50
180
51
270
0
ARC
8
0
10
177.95
20
-16.025
40
0.5
50
270
51
0
0
LINE
8
0
10
12.55
20
-21.575
11
25.55
21
-21.575
0
LINE
8
0
10
12.55
20
-35.575
11
25.55
21
-35.575
0
LINE
8
0
10
12.05
20
-22.075
11
12.05
21
-35.075
0
LINE
8
0
10
26.05
20
-22.075
11
26.05
21
-35.075
0
ARC
8
0
10
12.55
20
-22.075
40
0.5
50
90
51
180
0
ARC
8
0
10
25.55
20
-22.075
40
0.5
50
0
51
90
0
ARC
8
0
10
12.55
20
-35.075
40
0.5
50
180
51
270
0
ARC
8
0
10
25.55
20
-35.075
40
0.5
50
270
51
0
0
LINE
8
0
10
31.6
20
-21.575
11
44.6
21
-21.575
0
LINE
8
0
10
31.6
20
-35.575
11
44.6
21
-35.575
0
LINE
8
0
10
31.1
20
-22.075
11
31.1
21
-35.075
0
LINE
8
0
10
45.1
20
-22.075
11
45.1
21
-35.075
0
ARC
8
0
10
31.6
20
-22.075
40
0.5
50
90
51
180
0
ARC
8
0
10
44.6
20
-22.075
40
0.5
50
0
51
90
0
ARC
8
0
10
31.6
20
-35.075
40
0.5
50
180
51
270
0
ARC
8
0
10
44.6
20
-35.075
40
0.5
50
270
51
0
0
LINE
8
0
10
69.7
20
-21.575
11
82.7
21
-21.575
0
LINE
8
0
10
69.7
20
-35.575
11
82.7
21
-35.575
0
LINE
8
0
10
69.2
20
-22.075
11
69.2
21
-35.075
0
LINE
8
0
10
83.2
20
-22.075
11
83.2
21
-35.075
0
ARC
8
0
10
69.7
20
-22.075
40
0.5
50
90
51
180
0
ARC
8
0
10
82.7
20
-22.075
40
0.5
50
0
51
90
0
ARC
8
0
10
69.7
20
-35.075
40
0.5
50
180
51
270
0
ARC
8
0
10
82.7
20
-35.075
40
0.5
50
270
51
0
0
LINE
8
0
10
88.75
20
-21.575
11
101.75
21
-21.575
0
LINE
8
0
10
88.75
20
-35.575
11
101.75
21
-35.575
0
LINE
8
0
10
88.25
20
-22.075
11
88.25
21
-35.075
0
LINE
8
0
10
102.25
20
-22.075
11
102.25
21
-35.075
0
ARC
8
0
10
88.75
20
-22.075
40
0.5
50
90
51
180
0
ARC
8
0
10
101.75
20
-22.075
40
0.5
50
0
51
90
0
ARC
8
0
10
88.75
20
-35.075
40
0.5
50
180
51
270
0
ARC
8
0
10
101.75
20
-35.075
40
0.5
50
270
51
0
0
LINE
8
0
10
107.8
20
-21.575
11
120.8
21
-21.575
0
LINE
8
0
10
107.8
20
-35.575
11
120.8
21
-35.575
0
LINE
8
0
10
107.3
20
-22.075
11
107.3
21
-35.075
0
LINE
8
0
10
121.3
20
-22.075
11
121.3
21
-35.075
0
ARC
8
0
10
107.8
20
-22.075
40
0.5
50
90
51
180
0
ARC
8
0
10
120.8
20
-22.075
40
0.5
50
0
51
90
0
ARC
8
0
10
107.8
20
-35.075
40
0.5
50
180
51
270
0
ARC
8
0
10
120.8
20
-35.075
40
0.5
50
270
51
0
0
LINE
8
0
10
145.9
20
-21.575
11
158.9
21
-21.575
0
LINE
8
0
10
145.9
20
-35.575
11
158.9
21
-35.575
0
LINE
8
0
10
145.4
20
-22.075
11
145.4
21
-35.075
0
LINE
8
0
10
159.4
20
-22.075
11
159.4
21
-35.075
0
ARC
8
0
10
145.9
20
-22.075
40
0.5
50
90
51
180
0
ARC
8
0
10
158.9
20
-22.075
40
0.5
50
0
51
90
0
ARC
8
0
10
145.9
20
-35.075
40
0.5
50
180
51
270
0
ARC
8
0
10
158.9
20
-35.075
40
0.5
50
270
51
0
0
LINE
8
0
10
184
20
-21.575
11
197
21
-21.575
0
LINE
8
0
10
184
20
-35.575
11
197
21
-35.575
0
LINE
8
0
10
183.5
20
-22.075
11
183.5
21
-35.075
0
LINE
8
0
10
197.5
20
-22.075
11
197.5
21
-35.075
0
ARC
8
0
10
184
20
-22.075
40
0.5
50
90
51
180
0
ARC
8
0
10
197
20
-22.075
40
0.5
50
0
51
90
0
ARC
8
0
10
184
20
-35.075
40
0.5
50
180
51
270
0
ARC
8
0
10
197
20
-35.075
40
0.5
50
270
51
0
0
LINE
8
0
10
3.025
20
-40.625
11
16.025
21
-40.625
0
LINE
8
0
10
3.025
20
-54.625
11
16.025
21
-54.625
0
LINE
8
0
10
2.525
20
-41.125
11
2.525
21
-54.125
0
LINE
8
0
10
16.525
20
-41.125
11
16.525
21
-54.125
0
ARC
8
0
10
3.025
20
-41.125
40
0.5
50
90
51
180
0
ARC
8
0
10
16.025
20
-41.125
40
0.5
50
0
51
90
0
ARC
8
0
10
3.025
20
-54.125
40
0.5
50
180
51
270
0
ARC
8
0
10
16.025
20
-54.125
40
0.5
50
270
51
0
0
LINE
8
0
10
22.075
20
-40.625
11
35.075
21
-40.625
0
LINE
8
0
10
22.075
20
-54.625
11
35.075
21
-54.625
0
LINE
8
0
10
21.575
20
-41.125
11
21.575
21
-54.125
0
LINE
8
0
10
35.575
20
-41.125
11
35.575
21
-54.125
0
ARC
8
0
10
22.075
20
-41.125
40
0.5
50
90
51
180
0
ARC
8
0
10
35.075
20
-41.125
40
0.5
50
0
51
90
0
ARC
8
0
10
22.075
20
-54.125
40
0.5
50
180
51
270
0
ARC
8
0
10
35.075
20
-54.125
40
0.5
50
270
51
0
0
LINE
8
0
10
41.125
20
-40.625
11
54.125
21
-40.625
0
LINE
8
0
10
41.125
20
-54.625
11
54.125
21
-54.625
0
LINE
8
0
10
40.625
20
-41.125
11
40.625
21
-54.125
0
LINE
8
0
10
54.625
20
-41.125
11
54.625
21
-54.125
0
ARC
8
0
10
41.125
20
-41.125
40
0.5
50
90
51
180
0
ARC
8
0
10
54.125
20
-41.125
40
0.5
50
0
51
90
0
ARC
8
0
10
41.125
20
-54.125
40
0.5
50
180
51
270
0
ARC
8
0
10
54.125
20
-54.125
40
0.5
50
270
51
0
0
LINE
8
0
10
60.175
20
-40.625
11
73.175
21
-40.625
0
LINE
8
0
10
60.175
20
-54.625
11
73.175
21
-54.625
0
LINE
8
0
10
59.675
20
-41.125
11
59.675
21
-54.125
0
LINE
8
0
10
73.675
20
-41.125
11
73.675
21
-54.125
0
ARC
8
0
10
60.175
20
-41.125
40
0.5
50
90
51
180
0
ARC
8
0
10
73.175
20
-41.125
40
0.5
50
0
51
90
0
ARC
8
0
10
60.175
20
-54.125
40
0.5
50
180
51
270
0
ARC
8
0
10
73.175
20
-54.125
40
0.5
50
270
51
0
0
LINE
8
0
10
79.225
20
-40.625
11
92.225
21
-40.625
0
LINE
8
0
10
79.225
20
-54.625
11
92.225
21
-54.625
0
LINE
8
0
10
78.725
20
-41.125
11
78.725
21
-54.125
0
LINE
8
0
10
92.725
20
-41.125
11
92.725
21
-54.125
0
ARC
8
0
10
79.225
20
-41.125
40
0.5
50
90
51
180
0
ARC
8
0
10
92.225
20
-41.125
40
0.5
50
0
51
90
0
ARC
8
0
10
79.225
20
-54.125
40
0.5
50
180
51
270
0
ARC
8
0
10
92.225
20
-54.125
40
0.5
50
270
51
0
0
LINE
8
0
10
98.275
20
-40.625
11
111.275
21
-40.625
0
LINE
8
0
10
98.275
20
-54.625
11
111.275
21
-54.625
0
LINE
8
0
10
97.775
20
-41.125
11
97.775
21
-54.125
0
LINE
8
0
10
111.775
20
-41.125
11
111.775
21
-54.125
0
ARC
8
0
10
98.275
20
-41.125
40
0.5
50
90
51
180
0
ARC
8
0
10
111.275
20
-41.125
40
0.5
50
0
51
90
0
ARC
8
0
10
98.275
20
-54.125
40
0.5
50
180
51
270
0
ARC
8
0
10
111.275
20
-54.125
40
0.5
50
270
51
0
0
LINE
8
0
10
117.325
20
-40.625
11
130.325
21
-40.625
0
LINE
8
0
10
117.325
20
-54.625
11
130.325
21
-54.625
0
LINE
8
0
10
116.825
20
-41.125
11
116.825
21
-54.125
0
LINE
8
0
10
130.825
20
-41.125
11
130.825
21
-54.125
0
ARC
8
0
10
117.325
20
-41.125
40
0.5
50
90
51
180
0
ARC
8
0
10
130.325
20
-41.125
40
0.5
50
0
51
90
0
ARC
8
0
10
117.325
20
-54.125
40
0.5
50
180
51
270
0
ARC
8
0
10
130.325
20
-54.125
40
0.5
50
270
51
0
0
LINE
8
0
10
164.95
20
-40.625
11
177.95
21
-40.625
0
LINE
8
0
10
164.95
20
-54.625
11
177.95
21
-54.625
0
LINE
8
0
10
164.45
20
-41.125
11
164.45
21
-54.125
0
LINE
8
0
10
178.45
20
-41.125
11
178.45
21
-54.125
0
ARC
8
0
10
164.95
20
-41.125
40
0.5
50
90
51
180
0
ARC
8
0
10
177.95
20
-41.125
40
0.5
50
0
51
90
0
ARC
8
0
10
164.95
20
-54.125
40
0.5
50
180
51
270
0
ARC
8
0
10
177.95
20
-54.125
40
0.5
50
270
51
0
0
LINE
8
0
10
0
20
-57.15
11
200.025
21
-57.15
0
LINE
8
0
10
0
20
0
11
200.025
21
0
0
LINE
8
0
10
0
20
-57.15
11
0
21
0
0
LINE
8
0
10
200.025
20
-57.15
11
200.025
21
0
0
ENDSEC
0
EOF